<svg id="Layer_1" data-name="Layer 1" xmlns="http://www.w3.org/2000/svg" viewBox="0 0 891.39 323.79"><defs><style>.cls-1{font-size:112.16px;font-family:Arial-BoldMT, Arial;font-weight:700;}.cls-1,.cls-2{fill:#fff;}</style></defs><title>PIZ Logo</title><text class="cls-1" transform="translate(190.21 148.33)">Professional</text><text class="cls-1" transform="translate(190.21 249.36)">Insurance</text><path class="cls-2" d="M87,92c26.3-.29,55.47,21.17,55.95,49.39,0,24.09-8.43,40.52-35.3,50.7-.35.13-.71.24-1.08.35A66.2,66.2,0,0,1,88,194.59a62.74,62.74,0,0,1-16.63-2.23v12.48a77.92,77.92,0,0,0,43.85-.57c.46-.14.9-.28,1.33-.43C144,194.75,164,170.64,165.06,142h.05V67.24H28.34v60.89C34.32,112.4,55.46,92.3,87,92Z"/><path class="cls-2" d="M106.45,226.69C80.15,227,51,205.51,50.5,177.29c0-24.09,8.43-40.51,35.3-50.7.35-.13.71-.24,1.08-.34A65.85,65.85,0,0,1,105.45,124a62.61,62.61,0,0,1,16.62,2.23V113.8a77.65,77.65,0,0,0-43.84.57c-.46.13-.9.27-1.33.42C49.41,123.88,29.49,148,28.39,176.61h-.05v74.78H165.11V190.5C159.13,206.24,138,226.34,106.45,226.69Z"/><circle class="cls-2" cx="92.84" cy="101.58" r="6.99"/><rect class="cls-2" x="85.85" y="128.2" width="16.03" height="90.31"/></svg>